<svg xmlns="http://www.w3.org/2000/svg" version="1.1" xmlns:xlink="http://www.w3.org/1999/xlink" xmlns:svgjs="http://svgjs.com/svgjs" width="3840" height="2160" preserveAspectRatio="none" viewBox="0 0 3840 2160"><g mask="url(&quot;#SvgjsMask1069&quot;)" fill="none"><rect width="3840" height="2160" x="0" y="0" fill="rgba(17, 24, 39, 1)"></rect><path d="M0,1421.18C262.096,1394.235,396.823,1099.062,594.044,924.351C757.15,779.862,969.902,682.478,1058.572,483.434C1146.922,285.109,1083.124,62.436,1074.659,-154.513C1065.105,-399.372,1118.77,-654.047,1005.706,-871.449C879.423,-1114.267,671.451,-1319.18,416.793,-1419.465C151.597,-1523.899,-175.415,-1578.155,-420.831,-1433.22C-663.943,-1289.646,-660.906,-940.411,-805.259,-697.761C-917.351,-509.34,-1108.138,-378.06,-1173.115,-168.668C-1244.964,62.87,-1281.4,318.94,-1190.493,543.68C-1098.13,772.02,-876.364,908.986,-678.092,1055.131C-467.055,1210.685,-260.796,1447.991,0,1421.18" fill="#0e131f"></path><path d="M3840 3447.5370000000003C4086.196 3452.159 4330.613 3378.56 4532.734 3237.915 4730.687 3100.17 4875.923 2897.255 4957.139 2670.18 5034.353 2454.296 5004.973 2224.094 4976.717000000001 1996.565 4947.9349999999995 1764.799 4915.346 1533.548 4791.404 1335.603 4653.634 1115.573 4479.789 900.863 4235.554 812.8679999999999 3985.91 722.924 3712.594 784.3720000000001 3456.742 854.742 3197.282 926.104 2907.817 998.387 2755.21 1220.024 2605.374 1437.636 2711.554 1730.83 2673.4939999999997 1992.282 2635.342 2254.361 2432.614 2511.892 2531.376 2757.629 2630.1890000000003 3003.494 2929.385 3088.636 3163.784 3212.212 3379.27 3325.816 3596.445 3442.964 3840 3447.5370000000003" fill="#141d2f"></path></g><defs><mask id="SvgjsMask1069"><rect width="3840" height="2160" fill="#ffffff"></rect></mask></defs></svg>